<?xml version="1.0" encoding="UTF-8"?>
<svg id="Ebene_1" xmlns="http://www.w3.org/2000/svg" version="1.1" viewBox="0 0 313.78 144.34">
  <!-- Generator: Adobe Illustrator 29.0.1, SVG Export Plug-In . SVG Version: 2.1.0 Build 192)  -->
  <defs>
    <style>
      .st0 {
        fill-rule: evenodd;
      }

      .st0, .st1 {
        fill: #1d1d1b;
      }
    </style>
  </defs>
  <g>
    <path class="st1" d="M165.19,94.29l25.9-43.6h-23.77v-9.75h37.62v6.5l-25.9,43.6h27.19v9.75h-41.04v-6.5Z"/>
    <path class="st1" d="M209.4,40.94h11.2l14.19,40.78,14.28-40.78h10.77l-21.12,59.85h-8.21l-21.12-59.85Z"/>
    <path class="st1" d="M263.26,40.94h11.2l14.19,40.78,14.28-40.78h10.77l-21.12,59.85h-8.21l-21.12-59.85Z"/>
  </g>
  <g>
    <g>
      <path class="st1" d="M40.59,36.41C52.46,13.72,72.94,7.91,78.6,6.59,106.6.04,125.66,15.08,125.66,15.08c-4.71,4.71-7.53,7.64-7.65,7.57-10.07-5.99-21.5-8.77-35-6.18-19.89,3.82-30.03,19.93-30.03,19.93h-12.4Z"/>
      <g>
        <path class="st0" d="M138.12,26.41c7.06,8.2,12.81,20.65,13.39,34.56,1.53,36.47-27.77,52.76-27.77,52.76l-7.46-7.83c10.41-5.74,24.93-19.41,24.63-43.5-.2-17.02-10.29-28.46-10.29-28.46,5.26-5.3,7.5-7.54,7.5-7.54Z"/>
        <path class="st0" d="M45.7,52.91c-3.09,14.41-.1,28.5,8.79,40.19,8.97,11.8,27.43,22.24,44.04,19.04l8.68,8.75c-24.92,6.29-49.49-4.3-62.72-23.38-13.02-18.77-10.96-37.17-9.6-44.6h10.81Z"/>
      </g>
    </g>
    <polygon class="st1" points="78.6 66.63 145.03 .08 156.65 3.39 85.84 74.16 78.6 66.63"/>
    <polygon class="st1" points="46.17 52.91 60.68 52.91 137.17 132.72 134.06 144.11 46.17 52.91"/>
    <polygon class="st1" points=".25 39.4 100.87 39.4 90.28 49.99 6.6 49.99 .25 39.4"/>
  </g>
</svg>